<?xml version="1.0" encoding="UTF-8" standalone="no"?>
<svg
   xmlns:dc="http://purl.org/dc/elements/1.1/"
   xmlns:cc="http://creativecommons.org/ns#"
   xmlns:rdf="http://www.w3.org/1999/02/22-rdf-syntax-ns#"
   xmlns:svg="http://www.w3.org/2000/svg"
   xmlns="http://www.w3.org/2000/svg"
   xmlns:sodipodi="http://sodipodi.sourceforge.net/DTD/sodipodi-0.dtd"
   xmlns:inkscape="http://www.inkscape.org/namespaces/inkscape"
   width="199.5311"
   height="154.24063"
   viewBox="0 0 199.5311 154.24063"
   version="1.1"
   id="svg15"
   sodipodi:docname="Lenoir-rhyne_logo_from_NCAA.svg"
   inkscape:version="1.0.1 (3bc2e813f5, 2020-09-07)">
  <metadata
     id="metadata21">
    <rdf:RDF>
      <cc:Work
         rdf:about="">
        <dc:format>image/svg+xml</dc:format>
        <dc:type
           rdf:resource="http://purl.org/dc/dcmitype/StillImage" />
      </cc:Work>
    </rdf:RDF>
  </metadata>
  <defs
     id="defs19" />
  <sodipodi:namedview
     pagecolor="#ffffff"
     bordercolor="#666666"
     borderopacity="1"
     objecttolerance="10"
     gridtolerance="10"
     guidetolerance="10"
     inkscape:pageopacity="0"
     inkscape:pageshadow="2"
     inkscape:window-width="747"
     inkscape:window-height="480"
     id="namedview17"
     showgrid="false"
     inkscape:zoom="1.2704305"
     inkscape:cx="100"
     inkscape:cy="76.40828"
     inkscape:window-x="0"
     inkscape:window-y="27"
     inkscape:window-maximized="0"
     inkscape:current-layer="svg15" />
  <!-- Generator: Sketch 54.1 (76490) - https://sketchapp.com -->
  <title
     id="title2">lenoir-rhyne</title>
  <desc
     id="desc4">Created with Sketch.</desc>
  <g
     id="g13"
     stroke="none"
     stroke-width="1"
     fill="none"
     fill-rule="evenodd"
     transform="translate(0,-23.59172)">
    <g
       id="lenoir-rhyne_BGL"
       fill="#a41f2f">
      <g
         id="lenoir-rhyne"
         transform="translate(0,23)">
        <g
           id="g10"
           transform="matrix(1,0,0,-1,0,154.83235)"
           fill-rule="nonzero">
          <g
             id="g12">
            <path
               d="M 128.071,45.419407 C 126.27376,36.670689 121.78856,14.682603 119.76962,8.3999209 H 0 v 7.1803551 c 19.069901,1.569309 21.314398,3.141696 21.314398,22.211597 v 87.280317 c 0,19.07218 -2.019487,20.41577 -19.5198339,21.76331 v 7.40513 H 66.638341 V 146.8355 C 49.361734,145.48796 47.341932,144.14437 47.341932,125.07219 V 36.896251 c 0,-10.994161 0.896489,-15.257593 5.384299,-17.278106 4.038107,-1.794871 10.545483,-2.243865 18.398343,-2.243865 10.770493,0 32.041496,1.347692 37.202056,7.404418 4.26272,4.487495 8.30138,11.667928 12.11518,22.43779 l 7.62919,-1.797081"
               id="path14" />
            <path
               d="m 110.52386,79.74911 c 10.32111,0 17.72545,1.794872 22.88758,6.059172 7.85088,6.504931 11.21814,15.480868 11.21814,27.147928 0,24.00789 -14.36134,32.98225 -28.71952,32.98225 -5.83432,0 -9.2,-1.12111 -10.77002,-2.243 -1.5716,-1.34675 -2.01973,-3.81381 -2.01973,-8.97515 V 79.74911 Z M 91.036684,32.509585 c -9.383826,-2.758895 -13.79929,1.299566 -13.79929,1.299566 V 154.24063 H 119.0501 c 18.39842,0 29.61814,-2.24458 38.59092,-8.07653 8.97594,-6.05996 15.03511,-15.93136 15.03511,-29.843 0,-19.518736 -12.78974,-30.512818 -28.2714,-37.020116 3.58895,-6.955424 15.51558,-28.593372 22.24615,-38.690492 8.07574,-12.340039 12.78817,-19.070453 17.72387,-24.006074 C 189.5353,10.770177 196.28007,7.3758026 198.96094,6.5079525 201.63944,5.638564 194.62958,0 183.20315,0 c -13.16686,0 -25.75148,6.9563627 -35.17554,21.315976 -6.50651,9.870532 -16.86154,29.264614 -23.36726,40.70848 -3.58974,6.730493 -7.62919,9.423432 -16.38106,9.423432 h -5.15898 v -30.15779 c 0,0 -2.70138,-6.02075 -12.083626,-8.780513 z"
               id="path16" />
          </g>
        </g>
      </g>
    </g>
  </g>
</svg>
